# xmcd CD database file
#
# Track frame offsets:
#	150
#	26826
#	54147
#	73886
#	98287
#	116000
#	135590
#	149320
#	167537
#
# Disc length: 2477 seconds
#
# Revision: 1
# Processed by: cddbd v1.5.2PL0 Copyright (c) Steve Scherf et al.
# Submitted via: CDex 1.51
#
DISCID=7309ab09
DTITLE=B.B. Max - SMOKE BREAK
DYEAR=2006
DGENRE=Country
TTITLE0=Help Me Through The Day
TTITLE1=Go-Go Train
TTITLE2=The Letter
TTITLE3=Clyde
TTITLE4=Only You
TTITLE5=Tell Me Woman
TTITLE6=I Gotta Move
TTITLE7=B.B.Tocky
TTITLE8=On The Skateboard
EXTD=YEAR: 2006
EXTT0=
EXTT1=
EXTT2=
EXTT3=
EXTT4=
EXTT5=
EXTT6=
EXTT7=
EXTT8=
PLAYORDER=
